# xmcd CD database file
#
# Track frame offsets:
#	150
#	14844
#	33195
#	54911
#	71027
#	89142
#	102337
#	120160
#	141774
#	162139
#	180336
#	197562
#	215729
#	237894
#	253359
#	272035
#	288567
#	301519
#	319379
#	338375
#
# Disc length: 4734 seconds
#
# Revision: 0
# Processed by: cddbd v1.5.2PL0 Copyright (c) Steve Scherf et al.
# Submitted via: CDex 1.51
#
DISCID=20127c14
DTITLE=Spirit of Salsa - Spirit of Salsa - Caliente
DYEAR=2015
DGENRE=Salsa
TTITLE0=Tito Puente - Oye Lo Que Tiene Salsa
TTITLE1=Sonora Carruseles - Al Son De Los Cueros
TTITLE2=Joe Arroyo - Mary
TTITLE3=Los Nemus - El Mundo Y El Nino
TTITLE4=Gerley - Que Se Sepa
TTITLE5=Celia Cruz - Reina Rumba
TTITLE6=Los Van Van - Que Le Den Candela
TTITLE7=Paulo FG - Pasta Y Tostones
TTITLE8=Grupo Caneo - Duele
TTITLE9=Yambu - Profesor
TTITLE10=Charanga Habanera - El Temba
TTITLE11=Manny Oquendo y Libre - Bailala Pronto
TTITLE12=Candido Fabre y su Banda - El Granmy
TTITLE13=Afro Salsa - Bane
TTITLE14=Luis Alberto - Reina De Reinas
TTITLE15=Los Nemus del Pacifico - Para La Luna
TTITLE16=Ibrahim Ferrer feat Teresa Garcia Caturla - Ausencia
TTITLE17=Aris Martinez - No Tiguere Gallo Ni Piraguayo
TTITLE18=Son de Oriente - La Rumba De Las Calaveras
TTITLE19=Calle 23 feat El Nino - La Manteca De Corojo
EXTD=YEAR: 2015
EXTT0=
EXTT1=
EXTT2=
EXTT3=
EXTT4=
EXTT5=
EXTT6=
EXTT7=
EXTT8=
EXTT9=
EXTT10=
EXTT11=
EXTT12=
EXTT13=
EXTT14=
EXTT15=
EXTT16=
EXTT17=
EXTT18=
EXTT19=
PLAYORDER=
